<svg width="1024" height="1024" viewBox="0 0 1024 1024" fill="none" xmlns="http://www.w3.org/2000/svg">
<g clip-path="url(#clip0_25_51)">
<path d="M1023.38 294.291C1022.68 268.158 1021.14 241.797 1016.49 215.954C1011.78 189.736 1004.09 165.336 991.963 141.516C980.046 118.104 964.474 96.6788 945.898 78.1027C927.321 59.5266 905.897 43.9546 882.484 32.0376C858.664 19.9127 834.264 12.2215 808.047 7.50868C782.203 2.86298 755.843 1.32488 729.709 0.616479C717.716 0.291479 705.722 0.153079 693.726 0.0841793C679.483 -0.00582073 665.243 7.92722e-05 651 7.92722e-05H373C358.757 7.92722e-05 344.517 -0.00582073 330.274 0.0841793C318.278 0.153179 306.284 0.291479 294.291 0.616479C268.158 1.32488 241.797 2.86298 215.954 7.50868C189.736 12.2215 165.336 19.9126 141.516 32.0376C118.104 43.9547 96.6788 59.5266 78.1027 78.1027C59.5266 96.6788 43.9546 118.104 32.0376 141.516C19.9127 165.336 12.2215 189.736 7.50868 215.954C2.86308 241.797 1.32488 268.158 0.616583 294.291C0.291483 306.284 0.153183 318.278 0.084283 330.274C-0.00581695 344.517 8.30452e-05 358.757 8.30452e-05 373V651C8.30452e-05 665.243 -0.00591696 679.483 0.084083 693.726C0.152983 705.722 0.291383 717.716 0.616383 729.709C1.32468 755.843 2.86288 782.203 7.50848 808.047C12.2213 834.264 19.9125 858.664 32.0374 882.484C43.9545 905.897 59.5264 927.321 78.1025 945.898C96.6786 964.474 118.103 980.046 141.516 991.963C165.336 1004.09 189.736 1011.78 215.953 1016.49C241.797 1021.14 268.157 1022.68 294.291 1023.38C306.284 1023.71 318.278 1023.85 330.274 1023.92C344.517 1024.01 358.757 1024 373 1024H651C665.243 1024 679.483 1024.01 693.726 1023.92C705.722 1023.85 717.716 1023.71 729.709 1023.38C755.842 1022.68 782.203 1021.14 808.046 1016.49C834.264 1011.78 858.664 1004.09 882.484 991.963C905.896 980.046 927.321 964.474 945.897 945.898C964.474 927.321 980.046 905.897 991.963 882.484C1004.09 858.664 1011.78 834.264 1016.49 808.047C1021.14 782.203 1022.68 755.843 1023.38 729.709C1023.71 717.716 1023.85 705.722 1023.92 693.726C1024.01 679.483 1024 665.243 1024 651V373C1024 358.757 1024.01 344.517 1023.92 330.274C1023.85 318.278 1023.71 306.284 1023.38 294.291Z" fill="url(#paint0_linear_25_51)"/>
<g filter="url(#filter0_i_25_51)">
<path d="M835.466 277.698L543.56 110.404C533.967 104.906 523.055 102 512.002 102C500.942 102 490.03 104.908 480.443 110.404L188.541 277.693C168.786 289.01 156.556 310.185 156.624 332.947L156.624 688.808C156.683 711.21 169.761 732.144 189.102 743.438L479.992 913.338C489.692 919.004 500.763 922 512.002 922C523.241 922 534.304 919.004 544.011 913.336L834.894 743.44C854.232 732.148 867.307 711.219 867.376 688.815L867.375 332.952C867.444 310.185 855.214 289.01 835.466 277.698ZM289.464 757.721L208.347 710.547C200.555 706.016 195.75 697.693 195.722 688.679L194.729 366.201C194.699 356.412 205.291 350.275 213.769 355.168L295.227 402.191C303.067 406.718 307.904 415.076 307.922 424.129L308.539 746.724C308.558 756.524 297.936 762.648 289.464 757.721ZM493.756 854.461C493.756 864.25 483.143 870.355 474.681 865.434L370.039 804.579C362.234 800.04 357.427 791.697 357.414 782.669L356.959 459.83C356.945 450.051 367.529 443.93 375.998 448.819L481.061 509.468C488.916 514.003 493.756 522.384 493.756 531.455V854.461ZM499.307 472.969L388.8 409.177C381.792 405.131 380.308 395.648 385.746 389.655L460.862 306.86C465.767 301.455 459.166 293.402 452.903 297.15L332.539 369.173C328.587 371.537 323.664 371.576 319.676 369.274L232.017 318.671C223.538 313.777 223.557 301.533 232.051 296.665L499.377 143.444C507.196 138.962 516.806 138.962 524.625 143.444L639.362 209.207C646.413 213.249 647.903 222.783 642.421 228.783L574.149 303.498C569.179 308.937 575.91 317.054 582.175 313.176L690.451 246.156C694.413 243.704 699.401 243.619 703.444 245.937L791.95 296.666C800.443 301.534 800.462 313.778 791.983 318.672L524.691 472.969C516.837 477.503 507.161 477.503 499.307 472.969ZM828.278 688.679C828.25 697.692 823.445 706.015 815.653 710.546L549.318 865.433C540.855 870.354 530.243 864.249 530.243 854.46V531.454C530.243 522.383 535.082 514.002 542.938 509.467L810.231 355.169C818.709 350.275 829.301 356.413 829.271 366.201L828.278 688.679Z" fill="url(#paint1_linear_25_51)"/>
</g>
<path d="M512.002 97C523.555 97 534.961 99.942 545.071 105.518L546.046 106.065L837.95 273.359H837.951C859.255 285.562 872.444 308.393 872.375 332.952L872.376 688.814V688.83C872.302 712.776 858.588 734.947 838.383 747.183L837.416 747.758L546.532 917.654C536.061 923.768 524.128 927 512.002 927C499.877 927 487.936 923.769 477.471 917.655L186.58 747.756C165.844 735.647 151.688 713.148 151.624 688.821V332.947C151.556 308.776 164.336 286.276 185.062 273.935L186.056 273.354L477.957 106.065L478.931 105.518C489.036 99.943 500.442 97 512.002 97ZM373.499 453.149C368.366 450.186 361.951 453.896 361.959 459.823L362.414 782.662C362.424 789.912 366.284 796.612 372.552 800.257L477.194 861.111C482.323 864.094 488.756 860.394 488.756 854.461V531.455C488.756 524.171 484.869 517.441 478.561 513.799L373.499 453.149ZM824.271 366.186C824.289 360.253 817.869 356.533 812.731 359.499L545.438 513.797C539.129 517.438 535.243 524.17 535.243 531.454V854.46C535.243 860.393 541.675 864.093 546.804 861.11L813.14 706.224C819.397 702.585 823.256 695.901 823.278 688.663L824.271 366.186ZM211.269 359.499C206.131 356.533 199.711 360.253 199.729 366.186L200.723 688.664C200.745 695.902 204.603 702.586 210.86 706.225L291.979 753.399C297.113 756.385 303.55 752.673 303.539 746.733L302.922 424.139C302.908 416.869 299.023 410.156 292.727 406.521L211.269 359.499ZM522.139 147.781C515.859 144.182 508.142 144.182 501.863 147.781L234.537 301.003C229.389 303.953 229.378 311.374 234.517 314.341L322.175 364.943H322.176C324.593 366.339 327.576 366.315 329.972 364.882L450.335 292.859C461.532 286.159 473.334 300.555 464.565 310.22L389.448 393.015C386.153 396.647 387.052 402.394 391.3 404.847L501.807 468.639C508.114 472.28 515.884 472.28 522.191 468.639L789.483 314.342C794.622 311.376 794.611 303.955 789.463 301.004L700.957 250.274C698.507 248.87 695.484 248.922 693.082 250.408L584.807 317.428C573.607 324.36 561.573 309.85 570.458 300.126L638.729 225.41C642.052 221.774 641.15 215.995 636.876 213.545L522.139 147.781Z" stroke="#F9F8F4" stroke-width="10"/>
</g>
<defs>
<filter id="filter0_i_25_51" x="146.624" y="92" width="730.752" height="855" filterUnits="userSpaceOnUse" color-interpolation-filters="sRGB">
<feFlood flood-opacity="0" result="BackgroundImageFix"/>
<feBlend mode="normal" in="SourceGraphic" in2="BackgroundImageFix" result="shape"/>
<feColorMatrix in="SourceAlpha" type="matrix" values="0 0 0 0 0 0 0 0 0 0 0 0 0 0 0 0 0 0 127 0" result="hardAlpha"/>
<feOffset dy="15"/>
<feGaussianBlur stdDeviation="10"/>
<feComposite in2="hardAlpha" operator="arithmetic" k2="-1" k3="1"/>
<feColorMatrix type="matrix" values="0 0 0 0 0.0196078 0 0 0 0 0.105882 0 0 0 0 0.0588235 0 0 0 1 0"/>
<feBlend mode="normal" in2="shape" result="effect1_innerShadow_25_51"/>
</filter>
<linearGradient id="paint0_linear_25_51" x1="512" y1="0" x2="512" y2="1024" gradientUnits="userSpaceOnUse">
<stop stop-color="#F9F8F4"/>
<stop offset="1" stop-color="#E2DEC7"/>
</linearGradient>
<linearGradient id="paint1_linear_25_51" x1="156.624" y1="152.363" x2="867.376" y2="871.637" gradientUnits="userSpaceOnUse">
<stop stop-color="#1C4F39"/>
<stop offset="0.75" stop-color="#07140F"/>
</linearGradient>
<clipPath id="clip0_25_51">
<rect width="1024" height="1024" fill="white"/>
</clipPath>
</defs>
</svg>
